<?xml version="1.0" encoding="utf-8"?>
<!-- Generator: Adobe Illustrator 18.1.0, SVG Export Plug-In . SVG Version: 6.00 Build 0)  -->
<svg version="1.1" id="Layer_1" xmlns="http://www.w3.org/2000/svg" xmlns:xlink="http://www.w3.org/1999/xlink" x="0px" y="0px"
	 viewBox="0 0 320.9 67.4" enable-background="new 0 0 320.9 67.4" xml:space="preserve">
<g>
	<path fill="#FFFFFF" d="M9,35.5c0,7.9,5.8,11,13,11c7.9,0,10.9-3.9,10.9-7.8c0-4-2.2-5.5-4.2-6.3c-3.6-1.4-8.3-2.3-15.3-4.2
		c-8.8-2.4-11.4-7.7-11.4-13C1.9,4.8,11.4,0,20.7,0c10.7,0,19.7,5.7,19.7,16.4h-9C31,9.8,26.6,7.3,20.4,7.3c-4.2,0-9.4,1.5-9.4,6.7
		c0,3.6,2.4,5.6,6.1,6.6c0.8,0.2,12.2,3.2,14.8,4c6.8,2,10,7.8,10,13.1c0,11.5-10.2,16.1-20.4,16.1C9.7,53.8,0.2,48.2,0,35.5H9z"/>
	<path fill="#FFFFFF" d="M42.6,15.4h6.2V4.2H57v11.2h7.4v6.1H57v19.9c0,3.4,0.3,5.1,4,5.1c1.2,0,2.3,0,3.5-0.3v6.3
		c-1.8,0.1-3.5,0.4-5.3,0.4c-8.6,0-10.1-3.3-10.3-9.5V21.5h-6.2V15.4z"/>
	<path fill="#FFFFFF" d="M67.7,1.2h8.2V9h-8.2V1.2z M67.7,15.4h8.2v37.2h-8.2V15.4z"/>
	<path fill="#FFFFFF" d="M107.1,27.8c-0.6-4.5-4-7-8.5-7c-4.2,0-10.2,2.2-10.2,13.5c0,6.2,2.7,12.7,9.9,12.7c4.7,0,8.1-3.2,8.9-8.5
		h8.2c-1.5,9.6-7.5,15-17.1,15c-11.7,0-18.1-8.3-18.1-19.2c0-11.2,6.1-20,18.3-20c8.6,0,16,4.3,16.8,13.5H107.1z"/>
	<path fill="#FFFFFF" d="M119.4,1.2h8.2v29.2l14.8-15h10.1l-14.2,13.7l15.6,23.5h-10l-11.4-18.1l-4.9,4.7v13.3h-8.2V1.2z"/>
	<path fill="#FFFFFF" d="M153.2,15.4h9l9.7,27.8h0.1l9.4-27.8h8.6l-14.5,39.2c-2.7,6.7-4.6,12.7-13.2,12.7c-1.9,0-3.8-0.1-5.7-0.4
		V60c1.3,0.2,2.6,0.5,3.9,0.5c3.8,0,4.7-2,5.8-5.2l0.9-2.9L153.2,15.4z"/>
	<path fill="#FFFFFF" d="M192.8,1.2h21.7c8.6,0,16.5,3,16.5,12.6c0,5.4-3.6,10.4-8.9,11.5v0.1c6.6,0.9,10.9,5.8,10.9,12.5
		c0,4.9-1.7,14.6-18.4,14.6h-21.7V1.2z M197.7,23.7h16.8c7.8,0,11.6-3.9,11.6-8.7c0-6.4-4-9.6-11.6-9.6h-16.8V23.7z M197.7,48.4
		h16.8c7.3,0.1,13.5-2.4,13.5-10.6c0-6.5-5-9.9-13.5-9.9h-16.8V48.4z"/>
	<path fill="#FFFFFF" d="M240,35.3c0.1,6.6,3.5,14.6,12.2,14.6c6.6,0,10.2-3.9,11.7-9.5h4.5c-1.9,8.4-6.8,13.3-16.2,13.3
		c-11.8,0-16.8-9.1-16.8-19.6c0-9.8,5-19.6,16.8-19.6c11.9,0,16.7,10.4,16.3,20.9H240z M264,31.4c-0.2-6.8-4.5-13.2-11.8-13.2
		c-7.4,0-11.5,6.5-12.2,13.2H264z"/>
	<path fill="#FFFFFF" d="M271.9,26.8c0.4-8.7,6.5-12.4,15-12.4c6.5,0,13.7,2,13.7,11.9v19.7c0,1.7,0.9,2.7,2.7,2.7
		c0.5,0,1.1-0.1,1.4-0.3v3.8c-1,0.2-1.7,0.3-3,0.3c-4.6,0-5.3-2.6-5.3-6.5h-0.1c-3.2,4.8-6.4,7.6-13.5,7.6
		c-6.8,0-12.4-3.4-12.4-10.9c0-10.4,10.1-10.8,19.9-11.9c3.7-0.4,5.8-0.9,5.8-5c0-6.1-4.4-7.6-9.7-7.6c-5.6,0-9.8,2.6-9.9,8.6H271.9
		z M296.1,32.3H296c-0.6,1.1-2.6,1.4-3.8,1.7c-7.7,1.4-17.3,1.3-17.3,8.6c0,4.5,4,7.3,8.3,7.3c6.9,0,13-4.4,13-11.7V32.3z"/>
	<path fill="#FFFFFF" d="M313.4,15.5h7.6v3.8h-7.6v25c0,3,0.4,4.7,3.7,4.9c1.3,0,2.6-0.1,3.9-0.2v3.9c-1.4,0-2.7,0.1-4,0.1
		c-6,0-8.1-2-8.1-8.3V19.3h-6.5v-3.8h6.5V4.3h4.5V15.5z"/>
</g>
</svg>
